<mxfile host="app.diagrams.net" agent="Mozilla/5.0 (Macintosh; Intel Mac OS X 10_15_7) AppleWebKit/537.36 (KHTML, like Gecko) Chrome/134.0.0.0 Safari/537.36" version="26.1.1">
  <diagram name="第 1 页" id="adAzHm1e_BoQ8N-wT4d_">
    <mxGraphModel dx="1046" dy="1845" grid="1" gridSize="10" guides="1" tooltips="1" connect="1" arrows="1" fold="1" page="1" pageScale="1" pageWidth="827" pageHeight="1169" math="0" shadow="0">
      <root>
        <mxCell id="0" />
        <mxCell id="1" parent="0" />
        <mxCell id="wgcHzSkxyyXi9xTzC6jH-71" value="" style="rounded=0;whiteSpace=wrap;html=1;" vertex="1" parent="1">
          <mxGeometry x="630" y="295" width="480" height="825" as="geometry" />
        </mxCell>
        <mxCell id="wgcHzSkxyyXi9xTzC6jH-72" value="&lt;div&gt;&lt;span style=&quot;background-color: transparent; color: light-dark(rgb(0, 0, 0), rgb(255, 255, 255));&quot;&gt;1. 因为是只读事务，所以creator_trx_id = 0&lt;/span&gt;&lt;/div&gt;&lt;div&gt;2. 活跃中的事务trx_ids = [10]&lt;/div&gt;&lt;div&gt;3. 开始读取undo log版本，第一个版本的db_trx_id为10，处于活跃列表中，所以不能读取&lt;/div&gt;&lt;div&gt;3. 第二条记录的事务id为1，小于up_limit_id，可以读取&lt;/div&gt;&lt;div&gt;4. 读取结果为age=18&lt;/div&gt;" style="rounded=0;whiteSpace=wrap;html=1;align=left;" vertex="1" parent="1">
          <mxGeometry x="660" y="405" width="420" height="120" as="geometry" />
        </mxCell>
        <mxCell id="wgcHzSkxyyXi9xTzC6jH-70" style="edgeStyle=orthogonalEdgeStyle;rounded=0;orthogonalLoop=1;jettySize=auto;html=1;exitX=0.5;exitY=1;exitDx=0;exitDy=0;" edge="1" parent="1" source="wgcHzSkxyyXi9xTzC6jH-18" target="wgcHzSkxyyXi9xTzC6jH-19">
          <mxGeometry relative="1" as="geometry" />
        </mxCell>
        <mxCell id="wgcHzSkxyyXi9xTzC6jH-18" value="" style="rounded=0;whiteSpace=wrap;html=1;" vertex="1" parent="1">
          <mxGeometry x="70" y="130" width="520" height="180" as="geometry" />
        </mxCell>
        <mxCell id="wgcHzSkxyyXi9xTzC6jH-1" value="ReadView核心参数&lt;div&gt;&lt;br&gt;&lt;div&gt;ReadView中有几个参数&lt;/div&gt;&lt;div&gt;1. creator_trx_id:创建这个readView的事务id&lt;/div&gt;&lt;div&gt;2. trx_ids：活跃的事务id集合&lt;/div&gt;&lt;div&gt;3. up_limit_id：活跃的事务中最小的id&lt;/div&gt;&lt;div style=&quot;&quot;&gt;4. low_limit_id：生成read view时，系统应该分配给下一个事务的id指&lt;/div&gt;&lt;/div&gt;" style="rounded=0;whiteSpace=wrap;html=1;fillColor=#fff2cc;strokeColor=#d6b656;align=left;" vertex="1" parent="1">
          <mxGeometry x="80" y="-60" width="500" height="120" as="geometry" />
        </mxCell>
        <mxCell id="wgcHzSkxyyXi9xTzC6jH-2" value="首先数据库中已经存在一条数据" style="rounded=0;whiteSpace=wrap;html=1;" vertex="1" parent="1">
          <mxGeometry x="230" y="150" width="200" height="50" as="geometry" />
        </mxCell>
        <mxCell id="wgcHzSkxyyXi9xTzC6jH-3" value="" style="shape=table;startSize=0;container=1;collapsible=0;childLayout=tableLayout;" vertex="1" parent="1">
          <mxGeometry x="110" y="220" width="440" height="60" as="geometry" />
        </mxCell>
        <mxCell id="wgcHzSkxyyXi9xTzC6jH-4" value="" style="shape=tableRow;horizontal=0;startSize=0;swimlaneHead=0;swimlaneBody=0;strokeColor=inherit;top=0;left=0;bottom=0;right=0;collapsible=0;dropTarget=0;fillColor=none;points=[[0,0.5],[1,0.5]];portConstraint=eastwest;" vertex="1" parent="wgcHzSkxyyXi9xTzC6jH-3">
          <mxGeometry width="440" height="30" as="geometry" />
        </mxCell>
        <mxCell id="wgcHzSkxyyXi9xTzC6jH-5" value="name" style="shape=partialRectangle;html=1;whiteSpace=wrap;connectable=0;strokeColor=inherit;overflow=hidden;fillColor=none;top=0;left=0;bottom=0;right=0;pointerEvents=1;" vertex="1" parent="wgcHzSkxyyXi9xTzC6jH-4">
          <mxGeometry width="73" height="30" as="geometry">
            <mxRectangle width="73" height="30" as="alternateBounds" />
          </mxGeometry>
        </mxCell>
        <mxCell id="wgcHzSkxyyXi9xTzC6jH-6" value="age" style="shape=partialRectangle;html=1;whiteSpace=wrap;connectable=0;strokeColor=inherit;overflow=hidden;fillColor=none;top=0;left=0;bottom=0;right=0;pointerEvents=1;" vertex="1" parent="wgcHzSkxyyXi9xTzC6jH-4">
          <mxGeometry x="73" width="74" height="30" as="geometry">
            <mxRectangle width="74" height="30" as="alternateBounds" />
          </mxGeometry>
        </mxCell>
        <mxCell id="wgcHzSkxyyXi9xTzC6jH-7" value="sex" style="shape=partialRectangle;html=1;whiteSpace=wrap;connectable=0;strokeColor=inherit;overflow=hidden;fillColor=none;top=0;left=0;bottom=0;right=0;pointerEvents=1;" vertex="1" parent="wgcHzSkxyyXi9xTzC6jH-4">
          <mxGeometry x="147" width="73" height="30" as="geometry">
            <mxRectangle width="73" height="30" as="alternateBounds" />
          </mxGeometry>
        </mxCell>
        <mxCell id="wgcHzSkxyyXi9xTzC6jH-8" value="db_row_id" style="shape=partialRectangle;html=1;whiteSpace=wrap;connectable=0;strokeColor=inherit;overflow=hidden;fillColor=none;top=0;left=0;bottom=0;right=0;pointerEvents=1;" vertex="1" parent="wgcHzSkxyyXi9xTzC6jH-4">
          <mxGeometry x="220" width="73" height="30" as="geometry">
            <mxRectangle width="73" height="30" as="alternateBounds" />
          </mxGeometry>
        </mxCell>
        <mxCell id="wgcHzSkxyyXi9xTzC6jH-9" value="db_trx_id" style="shape=partialRectangle;html=1;whiteSpace=wrap;connectable=0;strokeColor=inherit;overflow=hidden;fillColor=none;top=0;left=0;bottom=0;right=0;pointerEvents=1;" vertex="1" parent="wgcHzSkxyyXi9xTzC6jH-4">
          <mxGeometry x="293" width="74" height="30" as="geometry">
            <mxRectangle width="74" height="30" as="alternateBounds" />
          </mxGeometry>
        </mxCell>
        <mxCell id="wgcHzSkxyyXi9xTzC6jH-10" value="db_row_ptr" style="shape=partialRectangle;html=1;whiteSpace=wrap;connectable=0;strokeColor=inherit;overflow=hidden;fillColor=none;top=0;left=0;bottom=0;right=0;pointerEvents=1;" vertex="1" parent="wgcHzSkxyyXi9xTzC6jH-4">
          <mxGeometry x="367" width="73" height="30" as="geometry">
            <mxRectangle width="73" height="30" as="alternateBounds" />
          </mxGeometry>
        </mxCell>
        <mxCell id="wgcHzSkxyyXi9xTzC6jH-11" value="" style="shape=tableRow;horizontal=0;startSize=0;swimlaneHead=0;swimlaneBody=0;strokeColor=inherit;top=0;left=0;bottom=0;right=0;collapsible=0;dropTarget=0;fillColor=none;points=[[0,0.5],[1,0.5]];portConstraint=eastwest;" vertex="1" parent="wgcHzSkxyyXi9xTzC6jH-3">
          <mxGeometry y="30" width="440" height="30" as="geometry" />
        </mxCell>
        <mxCell id="wgcHzSkxyyXi9xTzC6jH-12" value="张三" style="shape=partialRectangle;html=1;whiteSpace=wrap;connectable=0;strokeColor=inherit;overflow=hidden;fillColor=none;top=0;left=0;bottom=0;right=0;pointerEvents=1;" vertex="1" parent="wgcHzSkxyyXi9xTzC6jH-11">
          <mxGeometry width="73" height="30" as="geometry">
            <mxRectangle width="73" height="30" as="alternateBounds" />
          </mxGeometry>
        </mxCell>
        <mxCell id="wgcHzSkxyyXi9xTzC6jH-13" value="18" style="shape=partialRectangle;html=1;whiteSpace=wrap;connectable=0;strokeColor=inherit;overflow=hidden;fillColor=none;top=0;left=0;bottom=0;right=0;pointerEvents=1;" vertex="1" parent="wgcHzSkxyyXi9xTzC6jH-11">
          <mxGeometry x="73" width="74" height="30" as="geometry">
            <mxRectangle width="74" height="30" as="alternateBounds" />
          </mxGeometry>
        </mxCell>
        <mxCell id="wgcHzSkxyyXi9xTzC6jH-14" value="男" style="shape=partialRectangle;html=1;whiteSpace=wrap;connectable=0;strokeColor=inherit;overflow=hidden;fillColor=none;top=0;left=0;bottom=0;right=0;pointerEvents=1;" vertex="1" parent="wgcHzSkxyyXi9xTzC6jH-11">
          <mxGeometry x="147" width="73" height="30" as="geometry">
            <mxRectangle width="73" height="30" as="alternateBounds" />
          </mxGeometry>
        </mxCell>
        <mxCell id="wgcHzSkxyyXi9xTzC6jH-15" value="1" style="shape=partialRectangle;html=1;whiteSpace=wrap;connectable=0;strokeColor=inherit;overflow=hidden;fillColor=none;top=0;left=0;bottom=0;right=0;pointerEvents=1;" vertex="1" parent="wgcHzSkxyyXi9xTzC6jH-11">
          <mxGeometry x="220" width="73" height="30" as="geometry">
            <mxRectangle width="73" height="30" as="alternateBounds" />
          </mxGeometry>
        </mxCell>
        <mxCell id="wgcHzSkxyyXi9xTzC6jH-16" value="1" style="shape=partialRectangle;html=1;whiteSpace=wrap;connectable=0;strokeColor=inherit;overflow=hidden;fillColor=none;top=0;left=0;bottom=0;right=0;pointerEvents=1;" vertex="1" parent="wgcHzSkxyyXi9xTzC6jH-11">
          <mxGeometry x="293" width="74" height="30" as="geometry">
            <mxRectangle width="74" height="30" as="alternateBounds" />
          </mxGeometry>
        </mxCell>
        <mxCell id="wgcHzSkxyyXi9xTzC6jH-17" value="null" style="shape=partialRectangle;html=1;whiteSpace=wrap;connectable=0;strokeColor=inherit;overflow=hidden;fillColor=none;top=0;left=0;bottom=0;right=0;pointerEvents=1;" vertex="1" parent="wgcHzSkxyyXi9xTzC6jH-11">
          <mxGeometry x="367" width="73" height="30" as="geometry">
            <mxRectangle width="73" height="30" as="alternateBounds" />
          </mxGeometry>
        </mxCell>
        <mxCell id="wgcHzSkxyyXi9xTzC6jH-19" value="" style="rounded=0;whiteSpace=wrap;html=1;" vertex="1" parent="1">
          <mxGeometry x="70" y="360" width="520" height="270" as="geometry" />
        </mxCell>
        <mxCell id="wgcHzSkxyyXi9xTzC6jH-20" value="事务id为10的数据，进行修改，把年龄改到20，但是没有提交" style="rounded=0;whiteSpace=wrap;html=1;" vertex="1" parent="1">
          <mxGeometry x="220" y="380" width="200" height="40" as="geometry" />
        </mxCell>
        <mxCell id="wgcHzSkxyyXi9xTzC6jH-21" value="" style="shape=table;startSize=0;container=1;collapsible=0;childLayout=tableLayout;" vertex="1" parent="1">
          <mxGeometry x="100" y="530" width="440" height="60" as="geometry" />
        </mxCell>
        <mxCell id="wgcHzSkxyyXi9xTzC6jH-22" value="" style="shape=tableRow;horizontal=0;startSize=0;swimlaneHead=0;swimlaneBody=0;strokeColor=inherit;top=0;left=0;bottom=0;right=0;collapsible=0;dropTarget=0;fillColor=none;points=[[0,0.5],[1,0.5]];portConstraint=eastwest;" vertex="1" parent="wgcHzSkxyyXi9xTzC6jH-21">
          <mxGeometry width="440" height="30" as="geometry" />
        </mxCell>
        <mxCell id="wgcHzSkxyyXi9xTzC6jH-23" value="name" style="shape=partialRectangle;html=1;whiteSpace=wrap;connectable=0;strokeColor=inherit;overflow=hidden;fillColor=none;top=0;left=0;bottom=0;right=0;pointerEvents=1;" vertex="1" parent="wgcHzSkxyyXi9xTzC6jH-22">
          <mxGeometry width="73" height="30" as="geometry">
            <mxRectangle width="73" height="30" as="alternateBounds" />
          </mxGeometry>
        </mxCell>
        <mxCell id="wgcHzSkxyyXi9xTzC6jH-24" value="age" style="shape=partialRectangle;html=1;whiteSpace=wrap;connectable=0;strokeColor=inherit;overflow=hidden;fillColor=none;top=0;left=0;bottom=0;right=0;pointerEvents=1;" vertex="1" parent="wgcHzSkxyyXi9xTzC6jH-22">
          <mxGeometry x="73" width="74" height="30" as="geometry">
            <mxRectangle width="74" height="30" as="alternateBounds" />
          </mxGeometry>
        </mxCell>
        <mxCell id="wgcHzSkxyyXi9xTzC6jH-25" value="sex" style="shape=partialRectangle;html=1;whiteSpace=wrap;connectable=0;strokeColor=inherit;overflow=hidden;fillColor=none;top=0;left=0;bottom=0;right=0;pointerEvents=1;" vertex="1" parent="wgcHzSkxyyXi9xTzC6jH-22">
          <mxGeometry x="147" width="73" height="30" as="geometry">
            <mxRectangle width="73" height="30" as="alternateBounds" />
          </mxGeometry>
        </mxCell>
        <mxCell id="wgcHzSkxyyXi9xTzC6jH-26" value="db_row_id" style="shape=partialRectangle;html=1;whiteSpace=wrap;connectable=0;strokeColor=inherit;overflow=hidden;fillColor=none;top=0;left=0;bottom=0;right=0;pointerEvents=1;" vertex="1" parent="wgcHzSkxyyXi9xTzC6jH-22">
          <mxGeometry x="220" width="73" height="30" as="geometry">
            <mxRectangle width="73" height="30" as="alternateBounds" />
          </mxGeometry>
        </mxCell>
        <mxCell id="wgcHzSkxyyXi9xTzC6jH-27" value="db_trx_id" style="shape=partialRectangle;html=1;whiteSpace=wrap;connectable=0;strokeColor=inherit;overflow=hidden;fillColor=none;top=0;left=0;bottom=0;right=0;pointerEvents=1;" vertex="1" parent="wgcHzSkxyyXi9xTzC6jH-22">
          <mxGeometry x="293" width="74" height="30" as="geometry">
            <mxRectangle width="74" height="30" as="alternateBounds" />
          </mxGeometry>
        </mxCell>
        <mxCell id="wgcHzSkxyyXi9xTzC6jH-28" value="db_row_ptr" style="shape=partialRectangle;html=1;whiteSpace=wrap;connectable=0;strokeColor=inherit;overflow=hidden;fillColor=none;top=0;left=0;bottom=0;right=0;pointerEvents=1;" vertex="1" parent="wgcHzSkxyyXi9xTzC6jH-22">
          <mxGeometry x="367" width="73" height="30" as="geometry">
            <mxRectangle width="73" height="30" as="alternateBounds" />
          </mxGeometry>
        </mxCell>
        <mxCell id="wgcHzSkxyyXi9xTzC6jH-29" value="" style="shape=tableRow;horizontal=0;startSize=0;swimlaneHead=0;swimlaneBody=0;strokeColor=inherit;top=0;left=0;bottom=0;right=0;collapsible=0;dropTarget=0;fillColor=none;points=[[0,0.5],[1,0.5]];portConstraint=eastwest;" vertex="1" parent="wgcHzSkxyyXi9xTzC6jH-21">
          <mxGeometry y="30" width="440" height="30" as="geometry" />
        </mxCell>
        <mxCell id="wgcHzSkxyyXi9xTzC6jH-30" value="张三" style="shape=partialRectangle;html=1;whiteSpace=wrap;connectable=0;strokeColor=inherit;overflow=hidden;fillColor=none;top=0;left=0;bottom=0;right=0;pointerEvents=1;" vertex="1" parent="wgcHzSkxyyXi9xTzC6jH-29">
          <mxGeometry width="73" height="30" as="geometry">
            <mxRectangle width="73" height="30" as="alternateBounds" />
          </mxGeometry>
        </mxCell>
        <mxCell id="wgcHzSkxyyXi9xTzC6jH-31" value="18" style="shape=partialRectangle;html=1;whiteSpace=wrap;connectable=0;strokeColor=inherit;overflow=hidden;fillColor=none;top=0;left=0;bottom=0;right=0;pointerEvents=1;" vertex="1" parent="wgcHzSkxyyXi9xTzC6jH-29">
          <mxGeometry x="73" width="74" height="30" as="geometry">
            <mxRectangle width="74" height="30" as="alternateBounds" />
          </mxGeometry>
        </mxCell>
        <mxCell id="wgcHzSkxyyXi9xTzC6jH-32" value="男" style="shape=partialRectangle;html=1;whiteSpace=wrap;connectable=0;strokeColor=inherit;overflow=hidden;fillColor=none;top=0;left=0;bottom=0;right=0;pointerEvents=1;" vertex="1" parent="wgcHzSkxyyXi9xTzC6jH-29">
          <mxGeometry x="147" width="73" height="30" as="geometry">
            <mxRectangle width="73" height="30" as="alternateBounds" />
          </mxGeometry>
        </mxCell>
        <mxCell id="wgcHzSkxyyXi9xTzC6jH-33" value="1" style="shape=partialRectangle;html=1;whiteSpace=wrap;connectable=0;strokeColor=inherit;overflow=hidden;fillColor=none;top=0;left=0;bottom=0;right=0;pointerEvents=1;" vertex="1" parent="wgcHzSkxyyXi9xTzC6jH-29">
          <mxGeometry x="220" width="73" height="30" as="geometry">
            <mxRectangle width="73" height="30" as="alternateBounds" />
          </mxGeometry>
        </mxCell>
        <mxCell id="wgcHzSkxyyXi9xTzC6jH-34" value="1" style="shape=partialRectangle;html=1;whiteSpace=wrap;connectable=0;strokeColor=inherit;overflow=hidden;fillColor=none;top=0;left=0;bottom=0;right=0;pointerEvents=1;" vertex="1" parent="wgcHzSkxyyXi9xTzC6jH-29">
          <mxGeometry x="293" width="74" height="30" as="geometry">
            <mxRectangle width="74" height="30" as="alternateBounds" />
          </mxGeometry>
        </mxCell>
        <mxCell id="wgcHzSkxyyXi9xTzC6jH-35" value="null" style="shape=partialRectangle;html=1;whiteSpace=wrap;connectable=0;strokeColor=inherit;overflow=hidden;fillColor=none;top=0;left=0;bottom=0;right=0;pointerEvents=1;" vertex="1" parent="wgcHzSkxyyXi9xTzC6jH-29">
          <mxGeometry x="367" width="73" height="30" as="geometry">
            <mxRectangle width="73" height="30" as="alternateBounds" />
          </mxGeometry>
        </mxCell>
        <mxCell id="wgcHzSkxyyXi9xTzC6jH-53" value="" style="shape=table;startSize=0;container=1;collapsible=0;childLayout=tableLayout;" vertex="1" parent="1">
          <mxGeometry x="100" y="450" width="440" height="60" as="geometry" />
        </mxCell>
        <mxCell id="wgcHzSkxyyXi9xTzC6jH-54" value="" style="shape=tableRow;horizontal=0;startSize=0;swimlaneHead=0;swimlaneBody=0;strokeColor=inherit;top=0;left=0;bottom=0;right=0;collapsible=0;dropTarget=0;fillColor=none;points=[[0,0.5],[1,0.5]];portConstraint=eastwest;" vertex="1" parent="wgcHzSkxyyXi9xTzC6jH-53">
          <mxGeometry width="440" height="30" as="geometry" />
        </mxCell>
        <mxCell id="wgcHzSkxyyXi9xTzC6jH-55" value="name" style="shape=partialRectangle;html=1;whiteSpace=wrap;connectable=0;strokeColor=inherit;overflow=hidden;fillColor=none;top=0;left=0;bottom=0;right=0;pointerEvents=1;" vertex="1" parent="wgcHzSkxyyXi9xTzC6jH-54">
          <mxGeometry width="73" height="30" as="geometry">
            <mxRectangle width="73" height="30" as="alternateBounds" />
          </mxGeometry>
        </mxCell>
        <mxCell id="wgcHzSkxyyXi9xTzC6jH-56" value="age" style="shape=partialRectangle;html=1;whiteSpace=wrap;connectable=0;strokeColor=inherit;overflow=hidden;fillColor=none;top=0;left=0;bottom=0;right=0;pointerEvents=1;" vertex="1" parent="wgcHzSkxyyXi9xTzC6jH-54">
          <mxGeometry x="73" width="74" height="30" as="geometry">
            <mxRectangle width="74" height="30" as="alternateBounds" />
          </mxGeometry>
        </mxCell>
        <mxCell id="wgcHzSkxyyXi9xTzC6jH-57" value="sex" style="shape=partialRectangle;html=1;whiteSpace=wrap;connectable=0;strokeColor=inherit;overflow=hidden;fillColor=none;top=0;left=0;bottom=0;right=0;pointerEvents=1;" vertex="1" parent="wgcHzSkxyyXi9xTzC6jH-54">
          <mxGeometry x="147" width="73" height="30" as="geometry">
            <mxRectangle width="73" height="30" as="alternateBounds" />
          </mxGeometry>
        </mxCell>
        <mxCell id="wgcHzSkxyyXi9xTzC6jH-58" value="db_row_id" style="shape=partialRectangle;html=1;whiteSpace=wrap;connectable=0;strokeColor=inherit;overflow=hidden;fillColor=none;top=0;left=0;bottom=0;right=0;pointerEvents=1;" vertex="1" parent="wgcHzSkxyyXi9xTzC6jH-54">
          <mxGeometry x="220" width="73" height="30" as="geometry">
            <mxRectangle width="73" height="30" as="alternateBounds" />
          </mxGeometry>
        </mxCell>
        <mxCell id="wgcHzSkxyyXi9xTzC6jH-59" value="db_trx_id" style="shape=partialRectangle;html=1;whiteSpace=wrap;connectable=0;strokeColor=inherit;overflow=hidden;fillColor=none;top=0;left=0;bottom=0;right=0;pointerEvents=1;" vertex="1" parent="wgcHzSkxyyXi9xTzC6jH-54">
          <mxGeometry x="293" width="74" height="30" as="geometry">
            <mxRectangle width="74" height="30" as="alternateBounds" />
          </mxGeometry>
        </mxCell>
        <mxCell id="wgcHzSkxyyXi9xTzC6jH-60" value="db_row_ptr" style="shape=partialRectangle;html=1;whiteSpace=wrap;connectable=0;strokeColor=inherit;overflow=hidden;fillColor=none;top=0;left=0;bottom=0;right=0;pointerEvents=1;" vertex="1" parent="wgcHzSkxyyXi9xTzC6jH-54">
          <mxGeometry x="367" width="73" height="30" as="geometry">
            <mxRectangle width="73" height="30" as="alternateBounds" />
          </mxGeometry>
        </mxCell>
        <mxCell id="wgcHzSkxyyXi9xTzC6jH-61" value="" style="shape=tableRow;horizontal=0;startSize=0;swimlaneHead=0;swimlaneBody=0;strokeColor=inherit;top=0;left=0;bottom=0;right=0;collapsible=0;dropTarget=0;fillColor=none;points=[[0,0.5],[1,0.5]];portConstraint=eastwest;" vertex="1" parent="wgcHzSkxyyXi9xTzC6jH-53">
          <mxGeometry y="30" width="440" height="30" as="geometry" />
        </mxCell>
        <mxCell id="wgcHzSkxyyXi9xTzC6jH-62" value="张三" style="shape=partialRectangle;html=1;whiteSpace=wrap;connectable=0;strokeColor=inherit;overflow=hidden;fillColor=none;top=0;left=0;bottom=0;right=0;pointerEvents=1;" vertex="1" parent="wgcHzSkxyyXi9xTzC6jH-61">
          <mxGeometry width="73" height="30" as="geometry">
            <mxRectangle width="73" height="30" as="alternateBounds" />
          </mxGeometry>
        </mxCell>
        <mxCell id="wgcHzSkxyyXi9xTzC6jH-63" value="20" style="shape=partialRectangle;html=1;whiteSpace=wrap;connectable=0;strokeColor=inherit;overflow=hidden;fillColor=none;top=0;left=0;bottom=0;right=0;pointerEvents=1;" vertex="1" parent="wgcHzSkxyyXi9xTzC6jH-61">
          <mxGeometry x="73" width="74" height="30" as="geometry">
            <mxRectangle width="74" height="30" as="alternateBounds" />
          </mxGeometry>
        </mxCell>
        <mxCell id="wgcHzSkxyyXi9xTzC6jH-64" value="男" style="shape=partialRectangle;html=1;whiteSpace=wrap;connectable=0;strokeColor=inherit;overflow=hidden;fillColor=none;top=0;left=0;bottom=0;right=0;pointerEvents=1;" vertex="1" parent="wgcHzSkxyyXi9xTzC6jH-61">
          <mxGeometry x="147" width="73" height="30" as="geometry">
            <mxRectangle width="73" height="30" as="alternateBounds" />
          </mxGeometry>
        </mxCell>
        <mxCell id="wgcHzSkxyyXi9xTzC6jH-65" value="1" style="shape=partialRectangle;html=1;whiteSpace=wrap;connectable=0;strokeColor=inherit;overflow=hidden;fillColor=none;top=0;left=0;bottom=0;right=0;pointerEvents=1;" vertex="1" parent="wgcHzSkxyyXi9xTzC6jH-61">
          <mxGeometry x="220" width="73" height="30" as="geometry">
            <mxRectangle width="73" height="30" as="alternateBounds" />
          </mxGeometry>
        </mxCell>
        <mxCell id="wgcHzSkxyyXi9xTzC6jH-66" value="10" style="shape=partialRectangle;html=1;whiteSpace=wrap;connectable=0;strokeColor=inherit;overflow=hidden;fillColor=none;top=0;left=0;bottom=0;right=0;pointerEvents=1;" vertex="1" parent="wgcHzSkxyyXi9xTzC6jH-61">
          <mxGeometry x="293" width="74" height="30" as="geometry">
            <mxRectangle width="74" height="30" as="alternateBounds" />
          </mxGeometry>
        </mxCell>
        <mxCell id="wgcHzSkxyyXi9xTzC6jH-67" value="" style="shape=partialRectangle;html=1;whiteSpace=wrap;connectable=0;strokeColor=inherit;overflow=hidden;fillColor=none;top=0;left=0;bottom=0;right=0;pointerEvents=1;" vertex="1" parent="wgcHzSkxyyXi9xTzC6jH-61">
          <mxGeometry x="367" width="73" height="30" as="geometry">
            <mxRectangle width="73" height="30" as="alternateBounds" />
          </mxGeometry>
        </mxCell>
        <mxCell id="wgcHzSkxyyXi9xTzC6jH-68" style="edgeStyle=orthogonalEdgeStyle;rounded=0;orthogonalLoop=1;jettySize=auto;html=1;exitX=1;exitY=0.5;exitDx=0;exitDy=0;entryX=1;entryY=0.5;entryDx=0;entryDy=0;" edge="1" parent="1" source="wgcHzSkxyyXi9xTzC6jH-61" target="wgcHzSkxyyXi9xTzC6jH-29">
          <mxGeometry relative="1" as="geometry" />
        </mxCell>
        <mxCell id="wgcHzSkxyyXi9xTzC6jH-73" value="&lt;meta charset=&quot;utf-8&quot;&gt;&lt;span style=&quot;color: rgb(0, 0, 0); font-family: Helvetica; font-size: 12px; font-style: normal; font-variant-ligatures: normal; font-variant-caps: normal; font-weight: 400; letter-spacing: normal; orphans: 2; text-align: center; text-indent: 0px; text-transform: none; widows: 2; word-spacing: 0px; -webkit-text-stroke-width: 0px; white-space: normal; background-color: rgb(251, 251, 251); text-decoration-thickness: initial; text-decoration-style: initial; text-decoration-color: initial; display: inline !important; float: none;&quot;&gt;这个时候有一个读事务开始读取这条数据&lt;/span&gt;" style="text;html=1;align=center;verticalAlign=middle;whiteSpace=wrap;rounded=0;" vertex="1" parent="1">
          <mxGeometry x="760" y="340" width="230" height="40" as="geometry" />
        </mxCell>
        <mxCell id="wgcHzSkxyyXi9xTzC6jH-75" style="edgeStyle=orthogonalEdgeStyle;rounded=0;orthogonalLoop=1;jettySize=auto;html=1;exitX=0;exitY=0.5;exitDx=0;exitDy=0;entryX=1;entryY=0.412;entryDx=0;entryDy=0;entryPerimeter=0;" edge="1" parent="1" source="wgcHzSkxyyXi9xTzC6jH-72" target="wgcHzSkxyyXi9xTzC6jH-19">
          <mxGeometry relative="1" as="geometry" />
        </mxCell>
        <mxCell id="wgcHzSkxyyXi9xTzC6jH-76" value="" style="rounded=0;whiteSpace=wrap;html=1;" vertex="1" parent="1">
          <mxGeometry x="65" y="695" width="530" height="410" as="geometry" />
        </mxCell>
        <mxCell id="wgcHzSkxyyXi9xTzC6jH-77" value="事务id为10的数据进行了提交，另一个事务id为20的再次修改了数据，但是没有提交" style="rounded=0;whiteSpace=wrap;html=1;" vertex="1" parent="1">
          <mxGeometry x="200" y="760" width="300" height="40" as="geometry" />
        </mxCell>
        <mxCell id="wgcHzSkxyyXi9xTzC6jH-78" value="" style="shape=table;startSize=0;container=1;collapsible=0;childLayout=tableLayout;" vertex="1" parent="1">
          <mxGeometry x="100" y="1030" width="440" height="60" as="geometry" />
        </mxCell>
        <mxCell id="wgcHzSkxyyXi9xTzC6jH-79" value="" style="shape=tableRow;horizontal=0;startSize=0;swimlaneHead=0;swimlaneBody=0;strokeColor=inherit;top=0;left=0;bottom=0;right=0;collapsible=0;dropTarget=0;fillColor=none;points=[[0,0.5],[1,0.5]];portConstraint=eastwest;" vertex="1" parent="wgcHzSkxyyXi9xTzC6jH-78">
          <mxGeometry width="440" height="30" as="geometry" />
        </mxCell>
        <mxCell id="wgcHzSkxyyXi9xTzC6jH-80" value="name" style="shape=partialRectangle;html=1;whiteSpace=wrap;connectable=0;strokeColor=inherit;overflow=hidden;fillColor=none;top=0;left=0;bottom=0;right=0;pointerEvents=1;" vertex="1" parent="wgcHzSkxyyXi9xTzC6jH-79">
          <mxGeometry width="73" height="30" as="geometry">
            <mxRectangle width="73" height="30" as="alternateBounds" />
          </mxGeometry>
        </mxCell>
        <mxCell id="wgcHzSkxyyXi9xTzC6jH-81" value="age" style="shape=partialRectangle;html=1;whiteSpace=wrap;connectable=0;strokeColor=inherit;overflow=hidden;fillColor=none;top=0;left=0;bottom=0;right=0;pointerEvents=1;" vertex="1" parent="wgcHzSkxyyXi9xTzC6jH-79">
          <mxGeometry x="73" width="74" height="30" as="geometry">
            <mxRectangle width="74" height="30" as="alternateBounds" />
          </mxGeometry>
        </mxCell>
        <mxCell id="wgcHzSkxyyXi9xTzC6jH-82" value="sex" style="shape=partialRectangle;html=1;whiteSpace=wrap;connectable=0;strokeColor=inherit;overflow=hidden;fillColor=none;top=0;left=0;bottom=0;right=0;pointerEvents=1;" vertex="1" parent="wgcHzSkxyyXi9xTzC6jH-79">
          <mxGeometry x="147" width="73" height="30" as="geometry">
            <mxRectangle width="73" height="30" as="alternateBounds" />
          </mxGeometry>
        </mxCell>
        <mxCell id="wgcHzSkxyyXi9xTzC6jH-83" value="db_row_id" style="shape=partialRectangle;html=1;whiteSpace=wrap;connectable=0;strokeColor=inherit;overflow=hidden;fillColor=none;top=0;left=0;bottom=0;right=0;pointerEvents=1;" vertex="1" parent="wgcHzSkxyyXi9xTzC6jH-79">
          <mxGeometry x="220" width="73" height="30" as="geometry">
            <mxRectangle width="73" height="30" as="alternateBounds" />
          </mxGeometry>
        </mxCell>
        <mxCell id="wgcHzSkxyyXi9xTzC6jH-84" value="db_trx_id" style="shape=partialRectangle;html=1;whiteSpace=wrap;connectable=0;strokeColor=inherit;overflow=hidden;fillColor=none;top=0;left=0;bottom=0;right=0;pointerEvents=1;" vertex="1" parent="wgcHzSkxyyXi9xTzC6jH-79">
          <mxGeometry x="293" width="74" height="30" as="geometry">
            <mxRectangle width="74" height="30" as="alternateBounds" />
          </mxGeometry>
        </mxCell>
        <mxCell id="wgcHzSkxyyXi9xTzC6jH-85" value="db_row_ptr" style="shape=partialRectangle;html=1;whiteSpace=wrap;connectable=0;strokeColor=inherit;overflow=hidden;fillColor=none;top=0;left=0;bottom=0;right=0;pointerEvents=1;" vertex="1" parent="wgcHzSkxyyXi9xTzC6jH-79">
          <mxGeometry x="367" width="73" height="30" as="geometry">
            <mxRectangle width="73" height="30" as="alternateBounds" />
          </mxGeometry>
        </mxCell>
        <mxCell id="wgcHzSkxyyXi9xTzC6jH-86" value="" style="shape=tableRow;horizontal=0;startSize=0;swimlaneHead=0;swimlaneBody=0;strokeColor=inherit;top=0;left=0;bottom=0;right=0;collapsible=0;dropTarget=0;fillColor=none;points=[[0,0.5],[1,0.5]];portConstraint=eastwest;" vertex="1" parent="wgcHzSkxyyXi9xTzC6jH-78">
          <mxGeometry y="30" width="440" height="30" as="geometry" />
        </mxCell>
        <mxCell id="wgcHzSkxyyXi9xTzC6jH-87" value="张三" style="shape=partialRectangle;html=1;whiteSpace=wrap;connectable=0;strokeColor=inherit;overflow=hidden;fillColor=none;top=0;left=0;bottom=0;right=0;pointerEvents=1;" vertex="1" parent="wgcHzSkxyyXi9xTzC6jH-86">
          <mxGeometry width="73" height="30" as="geometry">
            <mxRectangle width="73" height="30" as="alternateBounds" />
          </mxGeometry>
        </mxCell>
        <mxCell id="wgcHzSkxyyXi9xTzC6jH-88" value="18" style="shape=partialRectangle;html=1;whiteSpace=wrap;connectable=0;strokeColor=inherit;overflow=hidden;fillColor=none;top=0;left=0;bottom=0;right=0;pointerEvents=1;" vertex="1" parent="wgcHzSkxyyXi9xTzC6jH-86">
          <mxGeometry x="73" width="74" height="30" as="geometry">
            <mxRectangle width="74" height="30" as="alternateBounds" />
          </mxGeometry>
        </mxCell>
        <mxCell id="wgcHzSkxyyXi9xTzC6jH-89" value="男" style="shape=partialRectangle;html=1;whiteSpace=wrap;connectable=0;strokeColor=inherit;overflow=hidden;fillColor=none;top=0;left=0;bottom=0;right=0;pointerEvents=1;" vertex="1" parent="wgcHzSkxyyXi9xTzC6jH-86">
          <mxGeometry x="147" width="73" height="30" as="geometry">
            <mxRectangle width="73" height="30" as="alternateBounds" />
          </mxGeometry>
        </mxCell>
        <mxCell id="wgcHzSkxyyXi9xTzC6jH-90" value="1" style="shape=partialRectangle;html=1;whiteSpace=wrap;connectable=0;strokeColor=inherit;overflow=hidden;fillColor=none;top=0;left=0;bottom=0;right=0;pointerEvents=1;" vertex="1" parent="wgcHzSkxyyXi9xTzC6jH-86">
          <mxGeometry x="220" width="73" height="30" as="geometry">
            <mxRectangle width="73" height="30" as="alternateBounds" />
          </mxGeometry>
        </mxCell>
        <mxCell id="wgcHzSkxyyXi9xTzC6jH-91" value="1" style="shape=partialRectangle;html=1;whiteSpace=wrap;connectable=0;strokeColor=inherit;overflow=hidden;fillColor=none;top=0;left=0;bottom=0;right=0;pointerEvents=1;" vertex="1" parent="wgcHzSkxyyXi9xTzC6jH-86">
          <mxGeometry x="293" width="74" height="30" as="geometry">
            <mxRectangle width="74" height="30" as="alternateBounds" />
          </mxGeometry>
        </mxCell>
        <mxCell id="wgcHzSkxyyXi9xTzC6jH-92" value="null" style="shape=partialRectangle;html=1;whiteSpace=wrap;connectable=0;strokeColor=inherit;overflow=hidden;fillColor=none;top=0;left=0;bottom=0;right=0;pointerEvents=1;" vertex="1" parent="wgcHzSkxyyXi9xTzC6jH-86">
          <mxGeometry x="367" width="73" height="30" as="geometry">
            <mxRectangle width="73" height="30" as="alternateBounds" />
          </mxGeometry>
        </mxCell>
        <mxCell id="wgcHzSkxyyXi9xTzC6jH-93" value="" style="shape=table;startSize=0;container=1;collapsible=0;childLayout=tableLayout;" vertex="1" parent="1">
          <mxGeometry x="100" y="950" width="440" height="60" as="geometry" />
        </mxCell>
        <mxCell id="wgcHzSkxyyXi9xTzC6jH-94" value="" style="shape=tableRow;horizontal=0;startSize=0;swimlaneHead=0;swimlaneBody=0;strokeColor=inherit;top=0;left=0;bottom=0;right=0;collapsible=0;dropTarget=0;fillColor=none;points=[[0,0.5],[1,0.5]];portConstraint=eastwest;" vertex="1" parent="wgcHzSkxyyXi9xTzC6jH-93">
          <mxGeometry width="440" height="30" as="geometry" />
        </mxCell>
        <mxCell id="wgcHzSkxyyXi9xTzC6jH-95" value="name" style="shape=partialRectangle;html=1;whiteSpace=wrap;connectable=0;strokeColor=inherit;overflow=hidden;fillColor=none;top=0;left=0;bottom=0;right=0;pointerEvents=1;" vertex="1" parent="wgcHzSkxyyXi9xTzC6jH-94">
          <mxGeometry width="73" height="30" as="geometry">
            <mxRectangle width="73" height="30" as="alternateBounds" />
          </mxGeometry>
        </mxCell>
        <mxCell id="wgcHzSkxyyXi9xTzC6jH-96" value="age" style="shape=partialRectangle;html=1;whiteSpace=wrap;connectable=0;strokeColor=inherit;overflow=hidden;fillColor=none;top=0;left=0;bottom=0;right=0;pointerEvents=1;" vertex="1" parent="wgcHzSkxyyXi9xTzC6jH-94">
          <mxGeometry x="73" width="74" height="30" as="geometry">
            <mxRectangle width="74" height="30" as="alternateBounds" />
          </mxGeometry>
        </mxCell>
        <mxCell id="wgcHzSkxyyXi9xTzC6jH-97" value="sex" style="shape=partialRectangle;html=1;whiteSpace=wrap;connectable=0;strokeColor=inherit;overflow=hidden;fillColor=none;top=0;left=0;bottom=0;right=0;pointerEvents=1;" vertex="1" parent="wgcHzSkxyyXi9xTzC6jH-94">
          <mxGeometry x="147" width="73" height="30" as="geometry">
            <mxRectangle width="73" height="30" as="alternateBounds" />
          </mxGeometry>
        </mxCell>
        <mxCell id="wgcHzSkxyyXi9xTzC6jH-98" value="db_row_id" style="shape=partialRectangle;html=1;whiteSpace=wrap;connectable=0;strokeColor=inherit;overflow=hidden;fillColor=none;top=0;left=0;bottom=0;right=0;pointerEvents=1;" vertex="1" parent="wgcHzSkxyyXi9xTzC6jH-94">
          <mxGeometry x="220" width="73" height="30" as="geometry">
            <mxRectangle width="73" height="30" as="alternateBounds" />
          </mxGeometry>
        </mxCell>
        <mxCell id="wgcHzSkxyyXi9xTzC6jH-99" value="db_trx_id" style="shape=partialRectangle;html=1;whiteSpace=wrap;connectable=0;strokeColor=inherit;overflow=hidden;fillColor=none;top=0;left=0;bottom=0;right=0;pointerEvents=1;" vertex="1" parent="wgcHzSkxyyXi9xTzC6jH-94">
          <mxGeometry x="293" width="74" height="30" as="geometry">
            <mxRectangle width="74" height="30" as="alternateBounds" />
          </mxGeometry>
        </mxCell>
        <mxCell id="wgcHzSkxyyXi9xTzC6jH-100" value="db_row_ptr" style="shape=partialRectangle;html=1;whiteSpace=wrap;connectable=0;strokeColor=inherit;overflow=hidden;fillColor=none;top=0;left=0;bottom=0;right=0;pointerEvents=1;" vertex="1" parent="wgcHzSkxyyXi9xTzC6jH-94">
          <mxGeometry x="367" width="73" height="30" as="geometry">
            <mxRectangle width="73" height="30" as="alternateBounds" />
          </mxGeometry>
        </mxCell>
        <mxCell id="wgcHzSkxyyXi9xTzC6jH-101" value="" style="shape=tableRow;horizontal=0;startSize=0;swimlaneHead=0;swimlaneBody=0;strokeColor=inherit;top=0;left=0;bottom=0;right=0;collapsible=0;dropTarget=0;fillColor=none;points=[[0,0.5],[1,0.5]];portConstraint=eastwest;" vertex="1" parent="wgcHzSkxyyXi9xTzC6jH-93">
          <mxGeometry y="30" width="440" height="30" as="geometry" />
        </mxCell>
        <mxCell id="wgcHzSkxyyXi9xTzC6jH-102" value="张三" style="shape=partialRectangle;html=1;whiteSpace=wrap;connectable=0;strokeColor=inherit;overflow=hidden;fillColor=none;top=0;left=0;bottom=0;right=0;pointerEvents=1;" vertex="1" parent="wgcHzSkxyyXi9xTzC6jH-101">
          <mxGeometry width="73" height="30" as="geometry">
            <mxRectangle width="73" height="30" as="alternateBounds" />
          </mxGeometry>
        </mxCell>
        <mxCell id="wgcHzSkxyyXi9xTzC6jH-103" value="20" style="shape=partialRectangle;html=1;whiteSpace=wrap;connectable=0;strokeColor=inherit;overflow=hidden;fillColor=none;top=0;left=0;bottom=0;right=0;pointerEvents=1;" vertex="1" parent="wgcHzSkxyyXi9xTzC6jH-101">
          <mxGeometry x="73" width="74" height="30" as="geometry">
            <mxRectangle width="74" height="30" as="alternateBounds" />
          </mxGeometry>
        </mxCell>
        <mxCell id="wgcHzSkxyyXi9xTzC6jH-104" value="男" style="shape=partialRectangle;html=1;whiteSpace=wrap;connectable=0;strokeColor=inherit;overflow=hidden;fillColor=none;top=0;left=0;bottom=0;right=0;pointerEvents=1;" vertex="1" parent="wgcHzSkxyyXi9xTzC6jH-101">
          <mxGeometry x="147" width="73" height="30" as="geometry">
            <mxRectangle width="73" height="30" as="alternateBounds" />
          </mxGeometry>
        </mxCell>
        <mxCell id="wgcHzSkxyyXi9xTzC6jH-105" value="1" style="shape=partialRectangle;html=1;whiteSpace=wrap;connectable=0;strokeColor=inherit;overflow=hidden;fillColor=none;top=0;left=0;bottom=0;right=0;pointerEvents=1;" vertex="1" parent="wgcHzSkxyyXi9xTzC6jH-101">
          <mxGeometry x="220" width="73" height="30" as="geometry">
            <mxRectangle width="73" height="30" as="alternateBounds" />
          </mxGeometry>
        </mxCell>
        <mxCell id="wgcHzSkxyyXi9xTzC6jH-106" value="10" style="shape=partialRectangle;html=1;whiteSpace=wrap;connectable=0;strokeColor=inherit;overflow=hidden;fillColor=none;top=0;left=0;bottom=0;right=0;pointerEvents=1;" vertex="1" parent="wgcHzSkxyyXi9xTzC6jH-101">
          <mxGeometry x="293" width="74" height="30" as="geometry">
            <mxRectangle width="74" height="30" as="alternateBounds" />
          </mxGeometry>
        </mxCell>
        <mxCell id="wgcHzSkxyyXi9xTzC6jH-107" value="" style="shape=partialRectangle;html=1;whiteSpace=wrap;connectable=0;strokeColor=inherit;overflow=hidden;fillColor=none;top=0;left=0;bottom=0;right=0;pointerEvents=1;" vertex="1" parent="wgcHzSkxyyXi9xTzC6jH-101">
          <mxGeometry x="367" width="73" height="30" as="geometry">
            <mxRectangle width="73" height="30" as="alternateBounds" />
          </mxGeometry>
        </mxCell>
        <mxCell id="wgcHzSkxyyXi9xTzC6jH-108" style="edgeStyle=orthogonalEdgeStyle;rounded=0;orthogonalLoop=1;jettySize=auto;html=1;exitX=1;exitY=0.5;exitDx=0;exitDy=0;entryX=1;entryY=0.5;entryDx=0;entryDy=0;" edge="1" parent="1" source="wgcHzSkxyyXi9xTzC6jH-101" target="wgcHzSkxyyXi9xTzC6jH-86">
          <mxGeometry relative="1" as="geometry" />
        </mxCell>
        <mxCell id="wgcHzSkxyyXi9xTzC6jH-109" value="" style="shape=table;startSize=0;container=1;collapsible=0;childLayout=tableLayout;" vertex="1" parent="1">
          <mxGeometry x="100" y="850" width="440" height="60" as="geometry" />
        </mxCell>
        <mxCell id="wgcHzSkxyyXi9xTzC6jH-110" value="" style="shape=tableRow;horizontal=0;startSize=0;swimlaneHead=0;swimlaneBody=0;strokeColor=inherit;top=0;left=0;bottom=0;right=0;collapsible=0;dropTarget=0;fillColor=none;points=[[0,0.5],[1,0.5]];portConstraint=eastwest;" vertex="1" parent="wgcHzSkxyyXi9xTzC6jH-109">
          <mxGeometry width="440" height="30" as="geometry" />
        </mxCell>
        <mxCell id="wgcHzSkxyyXi9xTzC6jH-111" value="name" style="shape=partialRectangle;html=1;whiteSpace=wrap;connectable=0;strokeColor=inherit;overflow=hidden;fillColor=none;top=0;left=0;bottom=0;right=0;pointerEvents=1;" vertex="1" parent="wgcHzSkxyyXi9xTzC6jH-110">
          <mxGeometry width="73" height="30" as="geometry">
            <mxRectangle width="73" height="30" as="alternateBounds" />
          </mxGeometry>
        </mxCell>
        <mxCell id="wgcHzSkxyyXi9xTzC6jH-112" value="age" style="shape=partialRectangle;html=1;whiteSpace=wrap;connectable=0;strokeColor=inherit;overflow=hidden;fillColor=none;top=0;left=0;bottom=0;right=0;pointerEvents=1;" vertex="1" parent="wgcHzSkxyyXi9xTzC6jH-110">
          <mxGeometry x="73" width="74" height="30" as="geometry">
            <mxRectangle width="74" height="30" as="alternateBounds" />
          </mxGeometry>
        </mxCell>
        <mxCell id="wgcHzSkxyyXi9xTzC6jH-113" value="sex" style="shape=partialRectangle;html=1;whiteSpace=wrap;connectable=0;strokeColor=inherit;overflow=hidden;fillColor=none;top=0;left=0;bottom=0;right=0;pointerEvents=1;" vertex="1" parent="wgcHzSkxyyXi9xTzC6jH-110">
          <mxGeometry x="147" width="73" height="30" as="geometry">
            <mxRectangle width="73" height="30" as="alternateBounds" />
          </mxGeometry>
        </mxCell>
        <mxCell id="wgcHzSkxyyXi9xTzC6jH-114" value="db_row_id" style="shape=partialRectangle;html=1;whiteSpace=wrap;connectable=0;strokeColor=inherit;overflow=hidden;fillColor=none;top=0;left=0;bottom=0;right=0;pointerEvents=1;" vertex="1" parent="wgcHzSkxyyXi9xTzC6jH-110">
          <mxGeometry x="220" width="73" height="30" as="geometry">
            <mxRectangle width="73" height="30" as="alternateBounds" />
          </mxGeometry>
        </mxCell>
        <mxCell id="wgcHzSkxyyXi9xTzC6jH-115" value="db_trx_id" style="shape=partialRectangle;html=1;whiteSpace=wrap;connectable=0;strokeColor=inherit;overflow=hidden;fillColor=none;top=0;left=0;bottom=0;right=0;pointerEvents=1;" vertex="1" parent="wgcHzSkxyyXi9xTzC6jH-110">
          <mxGeometry x="293" width="74" height="30" as="geometry">
            <mxRectangle width="74" height="30" as="alternateBounds" />
          </mxGeometry>
        </mxCell>
        <mxCell id="wgcHzSkxyyXi9xTzC6jH-116" value="db_row_ptr" style="shape=partialRectangle;html=1;whiteSpace=wrap;connectable=0;strokeColor=inherit;overflow=hidden;fillColor=none;top=0;left=0;bottom=0;right=0;pointerEvents=1;" vertex="1" parent="wgcHzSkxyyXi9xTzC6jH-110">
          <mxGeometry x="367" width="73" height="30" as="geometry">
            <mxRectangle width="73" height="30" as="alternateBounds" />
          </mxGeometry>
        </mxCell>
        <mxCell id="wgcHzSkxyyXi9xTzC6jH-117" value="" style="shape=tableRow;horizontal=0;startSize=0;swimlaneHead=0;swimlaneBody=0;strokeColor=inherit;top=0;left=0;bottom=0;right=0;collapsible=0;dropTarget=0;fillColor=none;points=[[0,0.5],[1,0.5]];portConstraint=eastwest;" vertex="1" parent="wgcHzSkxyyXi9xTzC6jH-109">
          <mxGeometry y="30" width="440" height="30" as="geometry" />
        </mxCell>
        <mxCell id="wgcHzSkxyyXi9xTzC6jH-118" value="张三" style="shape=partialRectangle;html=1;whiteSpace=wrap;connectable=0;strokeColor=inherit;overflow=hidden;fillColor=none;top=0;left=0;bottom=0;right=0;pointerEvents=1;" vertex="1" parent="wgcHzSkxyyXi9xTzC6jH-117">
          <mxGeometry width="73" height="30" as="geometry">
            <mxRectangle width="73" height="30" as="alternateBounds" />
          </mxGeometry>
        </mxCell>
        <mxCell id="wgcHzSkxyyXi9xTzC6jH-119" value="30" style="shape=partialRectangle;html=1;whiteSpace=wrap;connectable=0;strokeColor=inherit;overflow=hidden;fillColor=none;top=0;left=0;bottom=0;right=0;pointerEvents=1;" vertex="1" parent="wgcHzSkxyyXi9xTzC6jH-117">
          <mxGeometry x="73" width="74" height="30" as="geometry">
            <mxRectangle width="74" height="30" as="alternateBounds" />
          </mxGeometry>
        </mxCell>
        <mxCell id="wgcHzSkxyyXi9xTzC6jH-120" value="男" style="shape=partialRectangle;html=1;whiteSpace=wrap;connectable=0;strokeColor=inherit;overflow=hidden;fillColor=none;top=0;left=0;bottom=0;right=0;pointerEvents=1;" vertex="1" parent="wgcHzSkxyyXi9xTzC6jH-117">
          <mxGeometry x="147" width="73" height="30" as="geometry">
            <mxRectangle width="73" height="30" as="alternateBounds" />
          </mxGeometry>
        </mxCell>
        <mxCell id="wgcHzSkxyyXi9xTzC6jH-121" value="1" style="shape=partialRectangle;html=1;whiteSpace=wrap;connectable=0;strokeColor=inherit;overflow=hidden;fillColor=none;top=0;left=0;bottom=0;right=0;pointerEvents=1;" vertex="1" parent="wgcHzSkxyyXi9xTzC6jH-117">
          <mxGeometry x="220" width="73" height="30" as="geometry">
            <mxRectangle width="73" height="30" as="alternateBounds" />
          </mxGeometry>
        </mxCell>
        <mxCell id="wgcHzSkxyyXi9xTzC6jH-122" value="20" style="shape=partialRectangle;html=1;whiteSpace=wrap;connectable=0;strokeColor=inherit;overflow=hidden;fillColor=none;top=0;left=0;bottom=0;right=0;pointerEvents=1;" vertex="1" parent="wgcHzSkxyyXi9xTzC6jH-117">
          <mxGeometry x="293" width="74" height="30" as="geometry">
            <mxRectangle width="74" height="30" as="alternateBounds" />
          </mxGeometry>
        </mxCell>
        <mxCell id="wgcHzSkxyyXi9xTzC6jH-123" value="" style="shape=partialRectangle;html=1;whiteSpace=wrap;connectable=0;strokeColor=inherit;overflow=hidden;fillColor=none;top=0;left=0;bottom=0;right=0;pointerEvents=1;" vertex="1" parent="wgcHzSkxyyXi9xTzC6jH-117">
          <mxGeometry x="367" width="73" height="30" as="geometry">
            <mxRectangle width="73" height="30" as="alternateBounds" />
          </mxGeometry>
        </mxCell>
        <mxCell id="wgcHzSkxyyXi9xTzC6jH-124" style="edgeStyle=orthogonalEdgeStyle;rounded=0;orthogonalLoop=1;jettySize=auto;html=1;exitX=1;exitY=0.5;exitDx=0;exitDy=0;" edge="1" parent="1" source="wgcHzSkxyyXi9xTzC6jH-117" target="wgcHzSkxyyXi9xTzC6jH-101">
          <mxGeometry relative="1" as="geometry" />
        </mxCell>
        <mxCell id="wgcHzSkxyyXi9xTzC6jH-125" value="这个读事务，再次读取这条数据" style="text;html=1;align=center;verticalAlign=middle;whiteSpace=wrap;rounded=0;" vertex="1" parent="1">
          <mxGeometry x="760" y="695" width="240" height="45" as="geometry" />
        </mxCell>
        <mxCell id="wgcHzSkxyyXi9xTzC6jH-126" value="&lt;div&gt;&lt;span style=&quot;background-color: transparent; color: light-dark(rgb(0, 0, 0), rgb(255, 255, 255));&quot;&gt;1. 因为是只读事务，所以creator_trx_id = 0&lt;/span&gt;&lt;/div&gt;&lt;div&gt;2. 活跃中的事务trx_ids = [20]&lt;/div&gt;&lt;div&gt;3. 开始读取undo log版本，第一个版本的db_trx_id为20，处于活跃列表中，所以不能读取&lt;/div&gt;&lt;div&gt;3. 第二条记录的事务id为10，小于up_limit_id，可以读取&lt;/div&gt;&lt;div&gt;4. 读取结果为age=20&lt;/div&gt;" style="rounded=0;whiteSpace=wrap;html=1;align=left;" vertex="1" parent="1">
          <mxGeometry x="666.5" y="800" width="420" height="120" as="geometry" />
        </mxCell>
        <mxCell id="wgcHzSkxyyXi9xTzC6jH-127" style="edgeStyle=orthogonalEdgeStyle;rounded=0;orthogonalLoop=1;jettySize=auto;html=1;exitX=0;exitY=0.5;exitDx=0;exitDy=0;entryX=0.99;entryY=0.416;entryDx=0;entryDy=0;entryPerimeter=0;" edge="1" parent="1" source="wgcHzSkxyyXi9xTzC6jH-126" target="wgcHzSkxyyXi9xTzC6jH-76">
          <mxGeometry relative="1" as="geometry" />
        </mxCell>
        <mxCell id="wgcHzSkxyyXi9xTzC6jH-128" value="&lt;ul class=&quot;auto-hide-last-sibling-br&quot; style=&quot;-webkit-font-smoothing: antialiased; box-sizing: border-box; -webkit-tap-highlight-color: rgba(0, 0, 0, 0); margin-bottom: 0px; margin-top: 8px; padding-left: 20px !important; overflow-anchor: auto; color: rgba(0, 0, 0, 0.85); font-family: Inter, -apple-system, &amp;quot;system-ui&amp;quot;, &amp;quot;Segoe UI&amp;quot;, &amp;quot;SF Pro SC&amp;quot;, &amp;quot;SF Pro Display&amp;quot;, &amp;quot;SF Pro Icons&amp;quot;, &amp;quot;PingFang SC&amp;quot;, &amp;quot;Hiragino Sans GB&amp;quot;, &amp;quot;Microsoft YaHei&amp;quot;, &amp;quot;Helvetica Neue&amp;quot;, Helvetica, Arial, sans-serif; font-size: 16px; font-style: normal; font-variant-ligatures: normal; font-variant-caps: normal; font-weight: 400; letter-spacing: normal; orphans: 2; text-align: left; text-indent: 0px; text-transform: none; widows: 2; word-spacing: 0px; -webkit-text-stroke-width: 0px; white-space: normal; background-color: rgb(255, 255, 255); text-decoration-thickness: initial; text-decoration-style: initial; text-decoration-color: initial;&quot;&gt;&lt;li style=&quot;-webkit-font-smoothing: antialiased; box-sizing: border-box; -webkit-tap-highlight-color: rgba(0, 0, 0, 0); font-size: var(--md-box-samantha-normal-text-font-size); font-weight: 400; line-height: var(--md-box-samantha-normal-text-line-height); color: var(--md-box-samantha-normal-text-color) !important; list-style-type: circle; margin-top: 8px; padding-left: 4px; overflow-anchor: auto;&quot;&gt;如果&lt;code style=&quot;-webkit-font-smoothing: antialiased; box-sizing: border-box; -webkit-tap-highlight-color: rgba(0, 0, 0, 0); background: var(--color-inline-code-background); border-radius: 4px; color: var(--color-text-primary); font-size: 14px; font-family: Menlo, Monaco, Consolas, &amp;quot;Courier New&amp;quot;, monospace; overflow-anchor: auto;&quot;&gt;trx_id&lt;/code&gt;小于&lt;code style=&quot;-webkit-font-smoothing: antialiased; box-sizing: border-box; -webkit-tap-highlight-color: rgba(0, 0, 0, 0); background: var(--color-inline-code-background); border-radius: 4px; color: var(--color-text-primary); font-size: 14px; font-family: Menlo, Monaco, Consolas, &amp;quot;Courier New&amp;quot;, monospace; overflow-anchor: auto;&quot;&gt;up_limit_id&lt;/code&gt;，说明该记录是在&lt;code style=&quot;-webkit-font-smoothing: antialiased; box-sizing: border-box; -webkit-tap-highlight-color: rgba(0, 0, 0, 0); background: var(--color-inline-code-background); border-radius: 4px; color: var(--color-text-primary); font-size: 14px; font-family: Menlo, Monaco, Consolas, &amp;quot;Courier New&amp;quot;, monospace; overflow-anchor: auto;&quot;&gt;ReadView&lt;/code&gt;创建之前就已经提交的事务插入或修改的，那么该记录对当前事务可见，可以读取。&lt;/li&gt;&lt;li style=&quot;-webkit-font-smoothing: antialiased; box-sizing: border-box; -webkit-tap-highlight-color: rgba(0, 0, 0, 0); font-size: var(--md-box-samantha-normal-text-font-size); font-weight: 400; line-height: var(--md-box-samantha-normal-text-line-height); color: var(--md-box-samantha-normal-text-color) !important; list-style-type: circle; margin-top: 8px; padding-left: 4px; overflow-anchor: auto;&quot;&gt;如果&lt;code style=&quot;-webkit-font-smoothing: antialiased; box-sizing: border-box; -webkit-tap-highlight-color: rgba(0, 0, 0, 0); background: var(--color-inline-code-background); border-radius: 4px; color: var(--color-text-primary); font-size: 14px; font-family: Menlo, Monaco, Consolas, &amp;quot;Courier New&amp;quot;, monospace; overflow-anchor: auto;&quot;&gt;trx_id&lt;/code&gt;大于等于&lt;code style=&quot;-webkit-font-smoothing: antialiased; box-sizing: border-box; -webkit-tap-highlight-color: rgba(0, 0, 0, 0); background: var(--color-inline-code-background); border-radius: 4px; color: var(--color-text-primary); font-size: 14px; font-family: Menlo, Monaco, Consolas, &amp;quot;Courier New&amp;quot;, monospace; overflow-anchor: auto;&quot;&gt;low_limit_id&lt;/code&gt;，说明该记录是在&lt;code style=&quot;-webkit-font-smoothing: antialiased; box-sizing: border-box; -webkit-tap-highlight-color: rgba(0, 0, 0, 0); background: var(--color-inline-code-background); border-radius: 4px; color: var(--color-text-primary); font-size: 14px; font-family: Menlo, Monaco, Consolas, &amp;quot;Courier New&amp;quot;, monospace; overflow-anchor: auto;&quot;&gt;ReadView&lt;/code&gt;创建之后才插入或修改的事务产生的，那么该记录对当前事务不可见，不能读取。&lt;/li&gt;&lt;li style=&quot;-webkit-font-smoothing: antialiased; box-sizing: border-box; -webkit-tap-highlight-color: rgba(0, 0, 0, 0); font-size: var(--md-box-samantha-normal-text-font-size); font-weight: 400; line-height: var(--md-box-samantha-normal-text-line-height); color: var(--md-box-samantha-normal-text-color) !important; list-style-type: circle; margin-top: 8px; padding-left: 4px; overflow-anchor: auto;&quot;&gt;如果&lt;code style=&quot;-webkit-font-smoothing: antialiased; box-sizing: border-box; -webkit-tap-highlight-color: rgba(0, 0, 0, 0); background: var(--color-inline-code-background); border-radius: 4px; color: var(--color-text-primary); font-size: 14px; font-family: Menlo, Monaco, Consolas, &amp;quot;Courier New&amp;quot;, monospace; overflow-anchor: auto;&quot;&gt;trx_id&lt;/code&gt;在&lt;code style=&quot;-webkit-font-smoothing: antialiased; box-sizing: border-box; -webkit-tap-highlight-color: rgba(0, 0, 0, 0); background: var(--color-inline-code-background); border-radius: 4px; color: var(--color-text-primary); font-size: 14px; font-family: Menlo, Monaco, Consolas, &amp;quot;Courier New&amp;quot;, monospace; overflow-anchor: auto;&quot;&gt;up_limit_id&lt;/code&gt;和&lt;code style=&quot;-webkit-font-smoothing: antialiased; box-sizing: border-box; -webkit-tap-highlight-color: rgba(0, 0, 0, 0); background: var(--color-inline-code-background); border-radius: 4px; color: var(--color-text-primary); font-size: 14px; font-family: Menlo, Monaco, Consolas, &amp;quot;Courier New&amp;quot;, monospace; overflow-anchor: auto;&quot;&gt;low_limit_id&lt;/code&gt;之间，需要进一步判断&lt;code style=&quot;-webkit-font-smoothing: antialiased; box-sizing: border-box; -webkit-tap-highlight-color: rgba(0, 0, 0, 0); background: var(--color-inline-code-background); border-radius: 4px; color: var(--color-text-primary); font-size: 14px; font-family: Menlo, Monaco, Consolas, &amp;quot;Courier New&amp;quot;, monospace; overflow-anchor: auto;&quot;&gt;trx_id&lt;/code&gt;是否在活跃事务列表中。如果不在活跃事务列表中，说明该事务在&lt;code style=&quot;-webkit-font-smoothing: antialiased; box-sizing: border-box; -webkit-tap-highlight-color: rgba(0, 0, 0, 0); background: var(--color-inline-code-background); border-radius: 4px; color: var(--color-text-primary); font-size: 14px; font-family: Menlo, Monaco, Consolas, &amp;quot;Courier New&amp;quot;, monospace; overflow-anchor: auto;&quot;&gt;ReadView&lt;/code&gt;创建之前已经提交，记录对当前事务可见，可以读取；如果在活跃事务列表中，说明该事务尚未提交，记录对当前事务不可见，不能读取。&lt;/li&gt;&lt;/ul&gt;" style="text;whiteSpace=wrap;html=1;" vertex="1" parent="1">
          <mxGeometry x="640" y="-90" width="560" height="260" as="geometry" />
        </mxCell>
        <mxCell id="wgcHzSkxyyXi9xTzC6jH-129" value="Read Commited隔离级别下" style="rounded=0;whiteSpace=wrap;html=1;" vertex="1" parent="1">
          <mxGeometry x="710" y="142.5" width="240" height="65" as="geometry" />
        </mxCell>
        <mxCell id="wgcHzSkxyyXi9xTzC6jH-130" value="&lt;font style=&quot;font-size: 16px;&quot;&gt;由上可知&lt;/font&gt;&lt;div&gt;&lt;br&gt;&lt;div style=&quot;text-align: left;&quot;&gt;&lt;font style=&quot;font-size: 16px;&quot;&gt;在Read commited隔离级别下，每次查询都会创建一个readVeiw，所以会出现不可重复读的问题&lt;/font&gt;&lt;/div&gt;&lt;div style=&quot;text-align: left;&quot;&gt;&lt;font style=&quot;font-size: 16px;&quot;&gt;而在&lt;span style=&quot;background-color: rgb(255, 255, 255); color: rgba(0, 0, 0, 0.85); font-family: Inter, -apple-system, &amp;quot;system-ui&amp;quot;, &amp;quot;Segoe UI&amp;quot;, &amp;quot;SF Pro SC&amp;quot;, &amp;quot;SF Pro Display&amp;quot;, &amp;quot;SF Pro Icons&amp;quot;, &amp;quot;PingFang SC&amp;quot;, &amp;quot;Hiragino Sans GB&amp;quot;, &amp;quot;Microsoft YaHei&amp;quot;, &amp;quot;Helvetica Neue&amp;quot;, Helvetica, Arial, sans-serif;&quot;&gt;Repeatable Read隔离级别下，只有再第一次查询的时候创建Read View，所以解决了不可重复读问题&lt;/span&gt;&lt;/font&gt;&lt;/div&gt;&lt;/div&gt;" style="rounded=0;whiteSpace=wrap;html=1;fillColor=#fff2cc;strokeColor=#d6b656;" vertex="1" parent="1">
          <mxGeometry x="370" y="1180" width="470" height="150" as="geometry" />
        </mxCell>
      </root>
    </mxGraphModel>
  </diagram>
</mxfile>
